External Loads File
version=1
nRows=46
nColumns=13
Range=5.000000e-03-10 seconds
endheader
time 	forceRightX 	forceRightY 	forceRightZ 	pointRightX 	pointRightY 	pointRightZ 	forceLeftX 	forceLeftY 	forceLeftZ 	pointLeftX 	pointLeftY 	pointLeftZ 		
2.505000 -301.620912 740.908887 -0.000000 0.399155 0.366859 -0.166178 45.740911 -115.202350 -0.000000 0.109569 0.267163 -0.411855
2.510000 -299.317334 753.873792 -0.000000 0.400526 0.359840 -0.166049 48.771336 -113.669120 -0.000000 0.108427 0.274050 -0.411890
2.515000 -295.754352 767.703758 -0.000000 0.401665 0.352710 -0.165850 51.391539 -112.286966 -0.000000 0.107604 0.280978 -0.411781
2.520000 -290.609987 782.151957 -0.000000 0.402554 0.345318 -0.165700 53.594897 -111.099843 -0.000000 0.107033 0.287900 -0.411546
2.525000 -284.552049 796.603483 -0.000000 0.403279 0.338032 -0.165477 55.527500 -110.099982 -0.000000 0.106737 0.294907 -0.411383
2.530000 -277.364518 810.822879 -0.000000 0.403778 0.330685 -0.165329 57.149484 -109.365595 -0.000000 0.106728 0.301935 -0.411288
2.535000 -268.803794 824.605266 -0.000000 0.404061 0.323338 -0.165181 58.388954 -108.975578 -0.000000 0.106987 0.309113 -0.411286
2.540000 -259.303125 837.533289 -0.000000 0.404103 0.315943 -0.165023 59.277737 -108.942500 -0.000000 0.107514 0.316207 -0.411239
2.545000 -249.208719 849.255791 -0.000000 0.403979 0.308696 -0.164837 59.839363 -109.271590 -0.000000 0.108327 0.323274 -0.411203
2.550000 -237.770159 859.787292 -0.000000 0.403493 0.301380 -0.164727 59.967749 -110.038116 -0.000000 0.109483 0.330320 -0.411293
2.555000 -225.823528 868.761716 -0.000000 0.402825 0.294097 -0.164698 59.761309 -111.198568 -0.000000 0.110906 0.337200 -0.411428
2.560000 -212.827869 876.331186 -0.000000 0.401944 0.286796 -0.164630 59.094181 -112.778243 -0.000000 0.112612 0.344076 -0.411618
2.565000 -196.974841 883.029589 -0.000000 0.400581 0.279214 -0.164943 57.656637 -114.844140 -0.000000 0.114642 0.351279 -0.411731
2.570000 -183.823834 887.824442 -0.000000 0.399128 0.272088 -0.165039 56.160632 -116.975162 -0.000000 0.116898 0.357834 -0.411852
2.575000 -169.886078 891.807354 -0.000000 0.397340 0.264970 -0.165009 54.211791 -119.374541 -0.000000 0.119437 0.364432 -0.412087
2.580000 -155.116563 895.226919 -0.000000 0.395304 0.257917 -0.164980 51.881930 -122.030776 -0.000000 0.122295 0.371198 -0.412249
2.585000 -140.931374 898.051560 -0.000000 0.392971 0.251056 -0.164921 49.459755 -124.856874 -0.000000 0.125373 0.377786 -0.412395
2.590000 -126.534326 900.575914 -0.000000 0.390350 0.244196 -0.164850 46.914374 -127.883178 -0.000000 0.128693 0.384283 -0.412526
2.595000 -112.128799 902.835828 -0.000000 0.387446 0.237501 -0.164804 44.293184 -131.049972 -0.000000 0.132278 0.390744 -0.412704
2.600000 -97.573515 904.838257 -0.000000 0.384221 0.230855 -0.164701 41.555628 -134.299919 -0.000000 0.136003 0.397136 -0.412660
2.605000 -83.345860 906.441988 -0.000000 0.380791 0.224325 -0.164644 38.730112 -137.537830 -0.000000 0.139981 0.403301 -0.412571
2.610000 -70.397354 907.422267 -0.000000 0.376970 0.218155 -0.164525 35.899447 -140.628912 -0.000000 0.143661 0.409344 -0.411822
2.615000 -56.095874 907.778318 -0.000000 0.372959 0.212061 -0.164430 32.574731 -143.552865 -0.000000 0.148093 0.415317 -0.411872
2.620000 -39.154649 907.245266 -0.000000 0.368684 0.206182 -0.164330 28.435971 -146.172773 -0.000000 0.154009 0.421046 -0.412717
2.625000 -26.123762 905.212833 -0.000000 0.364172 0.200624 -0.164230 24.437718 -148.077242 -0.000000 0.158405 0.426613 -0.412608
2.630000 -11.675965 901.560656 -0.000000 0.359456 0.195122 -0.164177 19.691763 -149.255783 -0.000000 0.163522 0.431958 -0.412688
2.635000 2.617222 895.741989 -0.000000 0.354568 0.189878 -0.164095 14.507578 -149.536923 -0.000000 0.168734 0.437157 -0.412805
2.640000 17.937929 887.174530 -0.000000 0.349542 0.184939 -0.164051 8.795015 -148.863763 -0.000000 0.174223 0.442723 -0.412959
2.645000 33.180636 875.301993 -0.000000 0.344273 0.180148 -0.163984 2.876879 -147.206334 -0.000000 0.180083 0.447489 -0.412976
2.650000 47.258412 859.748434 -0.000000 0.339042 0.175634 -0.163892 -2.896748 -144.623791 -0.000000 0.185834 0.452006 -0.413391
2.655000 62.453086 840.086733 -0.000000 0.333360 0.171361 -0.163939 -8.730994 -141.179186 -0.000000 0.191987 0.456313 -0.413193
2.660000 76.231853 816.277867 -0.000000 0.327721 0.167463 -0.163896 -14.043275 -136.932151 -0.000000 0.198064 0.460527 -0.412994
2.665000 89.016207 788.254001 -0.000000 0.321940 0.163825 -0.163877 -18.826171 -131.888102 -0.000000 0.204144 0.464609 -0.412827
2.670000 100.081961 756.142384 -0.000000 0.316112 0.160350 -0.163841 -22.998223 -125.988052 -0.000000 0.210167 0.468368 -0.412540
2.675000 109.194813 720.066999 -0.000000 0.310201 0.157320 -0.163824 -26.663035 -119.095443 -0.000000 0.216132 0.471863 -0.412329
2.680000 116.525881 680.082449 -0.000000 0.304302 0.154499 -0.163836 -30.053074 -111.004625 -0.000000 0.222293 0.474631 -0.412119
2.685000 122.444877 636.186894 -0.000000 0.298181 0.151900 -0.163624 -33.450684 -101.471102 -0.000000 0.228423 0.477430 -0.412006
2.690000 126.618516 588.572703 -0.000000 0.292043 0.149637 -0.163548 -36.997859 -90.345116 -0.000000 0.234693 0.479842 -0.411895
2.695000 129.268190 537.538909 -0.000000 0.285745 0.147768 -0.163407 -40.877299 -77.543167 -0.000000 0.241053 0.481839 -0.411796
2.700000 130.284259 483.730904 -0.000000 0.279341 0.146266 -0.163332 -45.160455 -63.005835 -0.000000 0.247456 0.483439 -0.411674
2.705000 129.713121 427.997641 -0.000000 0.272886 0.145425 -0.163323 -49.842975 -46.622527 -0.000000 0.253950 0.484690 -0.411828
2.710000 127.415503 371.415771 -0.000000 0.266276 0.144273 -0.163138 -54.757898 -28.300770 -0.000000 0.260204 0.485463 -0.412162
2.715000 123.520391 315.103769 -0.000000 0.259661 0.143716 -0.162861 -59.633795 -7.916587 -0.000000 0.266304 0.485872 -0.412354
2.720000 118.258251 260.185305 -0.000000 0.253113 0.143560 -0.162695 -64.149398 14.715167 -0.000000 0.272125 0.485951 -0.412692
2.725000 112.226794 207.575826 -0.000000 0.246347 0.144037 -0.162536 -68.056821 39.990350 -0.000000 0.277541 0.485598 -0.413122
2.730000 105.704695 158.211245 -0.000000 0.239435 0.144648 -0.162466 -71.324124 68.475084 -0.000000 0.282588 0.484973 -0.413585
